<svg id="Capa_1" enable-background="new 0 0 427.571 427.571" height="512" viewBox="0 0 427.571 427.571" width="512" xmlns="http://www.w3.org/2000/svg"><path d="m113.785 126.571-.235-.235 300.235-67.553-10.976-48.781-353.639 79.569h-35.385v304c0 13.255 10.745 24 24 24h352c13.255 0 24-10.745 24-24v-254h-300z" fill="#6d92ac"/><path d="m154.244 65.925 41.479 41.92-82.182 18.484-36.756-36.758h-27.674zm57.543-12.942 41.48 41.92 57.542-12.942-41.489-41.918zm191.028-42.965-75.953 17.083 41.489 41.917 45.435-10.219zm10.97 129.553v50h-77.85l31.28-50zm-164.53 0-31.27 50h58.97l31.28-50zm-135.47 0v50h45.22l31.27-50z" fill="#fff"/><path d="m43.785 376.571c0-5.523 4.477-10 10-10h320c5.523 0 10 4.477 10 10s-4.477 10-10 10h-320c-5.523 0-10-4.477-10-10zm117-157c-5.523 0-10 4.477-10 10v64h-97c-5.523 0-10 4.477-10 10s4.477 10 10 10h320c5.523 0 10-4.477 10-10s-4.477-10-10-10h-97v-64c0-5.523-4.477-10-10-10s-10 4.477-10 10v64h-86v-64c0-5.523-4.477-10-10-10zm130.29 188c-5.52 0-10 4.49-10 10s4.48 10 10 10c5.51 0 10-4.49 10-10s-4.491-10-10-10zm132.71-268v254c0 18.778-15.222 34-34 34h-53.71c-4.263 0-8.17-2.656-9.481-6.712-2.228-6.893 2.893-13.288 9.481-13.288h53.71c7.71-.01 13.99-6.29 14-14v-194h-380v194c.01 7.71 6.29 13.99 14 14h207.926c5.317 0 9.968 4 10.33 9.304.396 5.823-4.226 10.696-9.966 10.696h-208.29c-18.778 0-34-15.222-34-34v-304c0-5.523 4.477-10 10-10h34.273l352.556-79.324c5.389-1.214 10.739 2.172 11.952 7.561l10.975 48.78c1.212 5.388-2.173 10.739-7.561 11.951l-271.255 61.033h269.06c5.523-.001 10 4.476 10 9.999zm-93.39 40 18.768-30h-35.389l-18.768 30zm-58.98 0 18.768-30h-35.388l-18.762 30zm-58.971 0 18.762-30h-35.391l-18.762 30zm-58.98 0 18.762-30h-48.441v30zm-61.839-89.302 25.102 25.103 59.196-13.319-24.887-25.15zm82.425-18.546 24.887 25.151 34.526-7.769-24.887-25.15zm57.538-12.946 24.887 25.151 34.522-7.768-24.892-25.149zm57.532-12.944 24.892 25.149 34.524-7.768-24.892-25.149zm106.128-23.879-48.589 10.933 24.892 25.149 30.283-6.813zm-371.463 77.617v80h80v-48.858l-31.142-31.142zm380 80v-30h-31.03l-18.768 30z"/></svg>